<?xml version="1.0" standalone="no"?>
<!DOCTYPE svg PUBLIC "-//W3C//DTD SVG 20010904//EN"
 "http://www.w3.org/TR/2001/REC-SVG-20010904/DTD/svg10.dtd">
<svg version="1.0" xmlns="http://www.w3.org/2000/svg"
 width="512.000000pt" height="512.000000pt" viewBox="0 0 512.000000 512.000000"
 preserveAspectRatio="xMidYMid meet">
<metadata>
Created by potrace 1.14, written by Peter Selinger 2001-2017
</metadata>
<g transform="translate(0.000000,512.000000) scale(0.100000,-0.100000)"
fill="#000000" stroke="none">
<path d="M351 5104 c-117 -31 -236 -125 -293 -230 -61 -112 -58 -18 -58 -1905
0 -1201 3 -1743 11 -1784 31 -168 169 -317 339 -366 35 -10 282 -13 1155 -14
1034 -2 1114 -1 1175 16 123 34 227 114 289 223 65 114 61 -17 61 1910 0 1544
-2 1758 -15 1810 -43 164 -174 297 -336 340 -81 22 -2247 22 -2328 0z m231
-359 c47 -31 60 -72 61 -189 1 -124 -7 -156 -48 -196 -28 -27 -44 -34 -87 -37
-69 -5 -115 19 -144 75 -19 36 -21 56 -20 154 3 122 10 150 49 186 49 46 124
49 189 7z m1019 -456 c29 -20 746 -1202 777 -1280 19 -49 11 -88 -36 -167
-297 -502 -711 -1182 -731 -1199 -46 -40 -135 -43 -185 -6 -19 14 -251 389
-392 632 -12 20 -100 167 -196 326 -96 160 -180 304 -186 322 -6 18 -9 47 -7
64 3 18 58 123 125 233 633 1060 633 1060 678 1082 51 26 111 23 153 -7z
m1002 -2698 c34 -13 75 -66 83 -106 3 -20 5 -81 2 -138 -3 -87 -7 -107 -26
-135 -63 -88 -188 -84 -249 8 -21 30 -23 45 -23 152 0 98 3 125 19 156 36 70
111 94 194 63z"/>
<path d="M1241 3416 l-273 -455 248 -413 c136 -227 260 -432 274 -455 l27 -43
267 444 c146 245 268 451 271 459 5 11 -506 880 -534 910 -4 4 -130 -197 -280
-447z"/>
<path d="M3328 2918 c-3 -2000 4 -1815 -78 -1983 -96 -198 -280 -348 -498
-407 -62 -16 -113 -21 -260 -23 -100 -1 -185 -4 -187 -7 -2 -2 4 -4 13 -5 9
-1 107 -18 217 -38 110 -19 216 -38 235 -41 19 -3 67 -11 105 -19 167 -33 275
-23 383 35 96 51 185 150 218 242 13 36 51 217 68 323 2 17 21 122 41 235 36
205 78 444 90 510 8 51 24 142 29 166 2 12 7 39 10 60 4 22 15 86 26 144 11
58 22 121 25 140 5 33 41 237 50 290 3 14 12 66 20 115 23 129 24 138 29 161
2 12 7 37 10 55 3 19 8 45 10 59 3 14 23 131 46 260 23 129 43 246 46 260 2
14 15 86 28 160 14 74 34 189 46 255 52 292 55 343 24 440 -66 205 -207 305
-489 349 -53 8 -209 36 -232 41 l-23 5 -2 -1782z"/>
<path d="M4394 4168 c-1 -59 -8 -127 -17 -173 -3 -11 -8 -40 -12 -65 -10 -61
-10 -62 -44 -255 -17 -93 -33 -186 -36 -205 -3 -19 -14 -82 -25 -140 -11 -58
-22 -121 -25 -140 -6 -39 -43 -251 -51 -290 -2 -14 -7 -40 -10 -59 -3 -18 -8
-43 -10 -55 -2 -11 -15 -84 -29 -161 -13 -77 -31 -180 -40 -230 -17 -95 -61
-349 -70 -400 -2 -16 -7 -40 -9 -51 -2 -12 -7 -37 -10 -55 -3 -19 -8 -45 -10
-59 -8 -44 -25 -144 -31 -180 -3 -19 -10 -55 -15 -80 -5 -25 -21 -112 -35
-195 -15 -82 -30 -172 -35 -200 -5 -27 -18 -102 -29 -165 -11 -63 -25 -138
-30 -167 -6 -29 -13 -74 -17 -100 -17 -126 -87 -286 -169 -385 -97 -118 -215
-198 -363 -247 l-86 -28 50 -17 c27 -10 57 -22 67 -27 73 -39 250 -46 342 -14
74 26 164 90 213 151 53 64 69 102 212 499 61 171 115 319 120 330 10 25 42
112 68 185 29 82 341 943 349 960 3 8 7 20 9 25 1 6 95 264 209 575 307 840
284 772 291 866 7 82 -11 165 -52 246 -34 68 -135 167 -199 197 -55 26 -447
171 -461 171 -5 0 -10 -28 -10 -62z"/>
</g>
</svg>
